
<svg xmlns="http://www.w3.org/2000/svg" viewBox="0 0 320 240" fill="none">
  
  <rect width="320" height="240" fill="transparent"></rect>
  
  <circle cx="240" cy="56" r="32" fill="#E3C58A"></circle>
  
  <path d="M0 110 Q 80 96 160 108 T 320 110 L 320 130 L 0 130 Z" fill="#5C7A4F" opacity="0.45"></path>
  <path d="M0 140 Q 100 124 200 138 T 320 140 L 320 162 L 0 162 Z" fill="#5C7A4F" opacity="0.65"></path>
  <path d="M0 174 Q 120 158 220 172 T 320 174 L 320 200 L 0 200 Z" fill="#1F1B16"></path>
  
  <circle cx="64" cy="200" r="6" fill="#C75B3C"></circle>
  
  <path d="M64 200 L 120 174" stroke="#C75B3C" stroke-width="1.5" stroke-linecap="round"></path>
  <path d="M64 200 L 180 162" stroke="#C75B3C" stroke-width="1.5" stroke-linecap="round" opacity="0.7"></path>
  <path d="M64 200 L 240 130" stroke="#C75B3C" stroke-width="1.5" stroke-linecap="round" opacity="0.45"></path>
  
  <circle cx="120" cy="174" r="3" fill="#1F1B16"></circle>
  <circle cx="180" cy="162" r="3" fill="#1F1B16" opacity="0.7"></circle>
  <circle cx="240" cy="130" r="3" fill="#1F1B16" opacity="0.5"></circle>
</svg>